<svg width="17" height="13" viewBox="0 0 17 13" fill="none" xmlns="http://www.w3.org/2000/svg">
<path d="M16.1381 6.42519L14.4981 2.59849C14.4562 2.49968 14.3862 2.41537 14.2968 2.35607C14.2073 2.29677 14.1024 2.2651 13.9951 2.26502H12.3551V1.17167C12.3551 1.02669 12.2975 0.887638 12.195 0.785117C12.0925 0.682596 11.9534 0.625 11.8084 0.625H1.42167C1.27669 0.625 1.13764 0.682596 1.03512 0.785117C0.932596 0.887638 0.875 1.02669 0.875 1.17167V10.4651C0.875 10.6101 0.932596 10.7491 1.03512 10.8517C1.13764 10.9542 1.27669 11.0118 1.42167 11.0118H2.59155C2.71744 11.475 2.99226 11.8839 3.37362 12.1755C3.75497 12.467 4.22167 12.625 4.70171 12.625C5.18174 12.625 5.64844 12.467 6.02979 12.1755C6.41115 11.8839 6.68597 11.475 6.81186 11.0118H10.245C10.3708 11.475 10.6457 11.8839 11.027 12.1755C11.4084 12.467 11.8751 12.625 12.3551 12.625C12.8351 12.625 13.3018 12.467 13.6832 12.1755C14.0646 11.8839 14.3394 11.475 14.4653 11.0118H15.6351C15.7801 11.0118 15.9192 10.9542 16.0217 10.8517C16.1242 10.7491 16.1818 10.6101 16.1818 10.4651V6.63839C16.1817 6.56511 16.1668 6.49261 16.1381 6.42519ZM12.3551 3.35836H13.6343L14.8042 6.09172H12.3551V3.35836ZM4.70171 11.5584C4.48546 11.5584 4.27408 11.4943 4.09428 11.3742C3.91448 11.254 3.77434 11.0833 3.69159 10.8835C3.60883 10.6837 3.58718 10.4639 3.62937 10.2518C3.67156 10.0397 3.77569 9.84489 3.92859 9.69199C4.0815 9.53908 4.27632 9.43495 4.4884 9.39276C4.70049 9.35058 4.92033 9.37223 5.12011 9.45498C5.31989 9.53773 5.49065 9.67787 5.61079 9.85767C5.73093 10.0375 5.79505 10.2489 5.79505 10.4651C5.79505 10.7551 5.67986 11.0332 5.47482 11.2382C5.26977 11.4433 4.99168 11.5584 4.70171 11.5584ZM10.245 9.91843H6.81186C6.68597 9.45519 6.41115 9.04626 6.02979 8.75471C5.64844 8.46316 5.18174 8.3052 4.70171 8.3052C4.22167 8.3052 3.75497 8.46316 3.37362 8.75471C2.99226 9.04626 2.71744 9.45519 2.59155 9.91843H1.96834V1.71834H11.2618V8.58455C11.0128 8.72902 10.7949 8.92122 10.6204 9.15012C10.4459 9.37902 10.3183 9.64011 10.245 9.91843ZM12.3551 11.5584C12.1389 11.5584 11.9275 11.4943 11.7477 11.3742C11.5679 11.254 11.4277 11.0833 11.345 10.8835C11.2622 10.6837 11.2406 10.4639 11.2828 10.2518C11.325 10.0397 11.4291 9.84489 11.582 9.69199C11.7349 9.53908 11.9297 9.43495 12.1418 9.39276C12.3539 9.35058 12.5737 9.37223 12.7735 9.45498C12.9733 9.53773 13.1441 9.67787 13.2642 9.85767C13.3843 10.0375 13.4485 10.2489 13.4485 10.4651C13.4485 10.7551 13.3333 11.0332 13.1282 11.2382C12.9232 11.4433 12.6451 11.5584 12.3551 11.5584ZM15.0885 9.91843H14.4653C14.3444 9.45021 14.0717 9.03528 13.6899 8.73854C13.3081 8.44179 12.8387 8.27998 12.3551 8.27841V7.18507H15.0885V9.91843Z" fill="#B9B9B9"/>
</svg>
