<svg width="340" height="346" viewBox="0 0 340 346" fill="none" xmlns="http://www.w3.org/2000/svg">
<path d="M248.185 40.2114C267.371 57.3842 279.927 81.3445 300.085 115.784C320.337 150.223 348.263 195.136 337.673 221.912C327.082 248.689 277.787 257.32 231.242 274.879C184.697 292.439 140.876 318.824 100.565 313.68C60.253 308.537 23.4501 271.872 14.194 231.321C4.84407 190.672 22.9556 146.145 36.002 105.594C48.9546 65.0467 56.8422 28.4584 79.5284 11.8931C102.215 -4.67232 139.708 -1.11289 171.455 5.77237C203.197 12.7426 228.999 23.0428 248.185 40.2114Z" fill="#F8F8F8"/>
<path d="M72.9406 329.091H59.5957V344.836H40.0303V329.091H0V323.144L46.2509 260.17H59.5957V312.313H72.9406V329.091ZM40.0303 312.313V292.693L26.0417 312.313H40.0303Z" fill="#D3D3D3"/>
<path d="M84.0811 302.633C84.0811 278.239 91.2054 259.006 116.058 259.006C140.786 259.006 147.667 278.239 147.667 302.633C147.667 326.899 140.803 346 116.058 346C91.2054 346 84.0811 326.899 84.0811 302.633ZM128.128 302.633C128.128 287.919 125.275 276.561 116.079 276.561C106.75 276.561 103.514 287.919 103.514 302.633C103.514 317.214 106.75 328.318 116.079 328.318C125.275 328.335 128.128 317.214 128.128 302.633Z" fill="#D3D3D3"/>
<path d="M228.142 329.091H214.798V344.836H195.237V329.091H155.193V323.144L201.453 260.17H214.798V312.313H228.142V329.091ZM195.237 312.313V292.693L181.244 312.313H195.237Z" fill="#D3D3D3"/>
<path d="M228.841 329.481H236.093V323.365H228.841V329.481Z" fill="#DE8E68"/>
<path d="M236.776 328.526V334.642H219.521V332.416L228.496 328.526H236.776Z" fill="black"/>
<path d="M116.113 254.449H123.365V248.332H116.113V254.449Z" fill="#DE8E68"/>
<path d="M124.047 253.493V259.609H106.797V257.388L115.772 253.493H124.047Z" fill="black"/>
<path d="M228.59 171.69C228.956 175.164 236.66 324.979 236.66 324.979H228.59L189.344 183.918L228.59 171.69Z" fill="#56CAD8"/>
<path d="M232.734 155.184C232.734 175.529 225.226 193.836 210.026 193.836C189.16 193.836 161.537 180.584 153.935 173.104C152.038 178.694 125.126 249.101 125.126 249.101H113.981C113.981 249.101 121.123 167.123 134.51 146.098C138.915 140.254 174.856 141.715 193.015 146.098C211.173 150.482 232.734 155.184 232.734 155.184Z" fill="#74D5DE"/>
<path d="M178.839 36.6393C178.965 36.0108 179.319 35.4506 179.833 35.0652C180.347 34.6799 180.986 34.4963 181.627 34.5495C183.26 34.6642 185.929 38.9627 185.929 42.4414C185.929 45.9201 184.944 47.2284 185.242 49.7556C185.541 52.2829 192 86.5521 192 88.6418C193.629 88.7565 199.457 87.9452 199.457 87.9452L195.377 104.315H183.499L175.824 38.3807L178.839 36.6393Z" fill="#D37C59"/>
<path d="M190.23 42.4753L187.727 52.5504C187.727 52.5504 163.037 49.6918 160.342 49.0292C157.648 48.3666 161.707 31.7078 164.474 32.3874C167.241 33.067 190.23 42.4753 190.23 42.4753Z" fill="black"/>
<path d="M212.853 72.2803C244.438 72.2803 236.648 153.574 232.96 156.615C229.272 159.656 190.005 149.394 186.743 144.866C183.482 140.339 189.689 72.2803 212.853 72.2803Z" fill="#FED385"/>
<path d="M201.58 92.9191C199.844 93.5053 189.667 97.4597 189.667 97.4597C189.497 95.4209 181.673 54.9844 181.191 52.508C182.179 50.0364 182.667 47.395 182.628 44.735C182.628 38.0961 179.921 32.706 176.582 32.706C173.244 32.706 170.541 38.0961 170.541 44.735C170.494 47.5138 171.031 50.2716 172.118 52.8308C171.743 57.8854 168.375 105.878 175.248 112.721C182.496 119.942 200.117 113.43 210.827 108.58C213.121 107.79 209.996 90.6509 201.58 92.9191Z" fill="#DE8E68"/>
<path d="M194.023 46.6372L187.636 44.9477L186.451 49.3937L192.838 51.0833L194.023 46.6372Z" fill="black"/>
<path d="M232.981 87.2146C237.795 96.5252 218.733 113.299 213.459 112.05C208.185 110.801 199.679 92.0525 201.269 88.6885C202.859 85.3244 228.3 78.1546 232.981 87.2146Z" fill="#FED892"/>
<path d="M214.789 80.1596C214.789 81.7354 205.141 82.1347 205.141 80.1596V62.0141H214.789V80.1596Z" fill="#D37C59"/>
<path d="M206.479 72.5479C213.435 72.5479 219.074 63.4635 219.074 52.2574C219.074 41.0513 213.435 31.9669 206.479 31.9669C199.524 31.9669 193.885 41.0513 193.885 52.2574C193.885 63.4635 199.524 72.5479 206.479 72.5479Z" fill="#DC8E6C"/>
<path d="M197.044 38.814C196.948 40.2713 197.243 41.7278 197.899 43.034C198.554 44.3403 199.547 45.4493 200.775 46.2472C204.531 48.7957 207.208 47.6701 209.962 50.07C211.416 51.5184 214.976 54.3175 215.011 58.6415C215.011 61.8399 216.064 63.4539 216.989 63.4539C217.914 63.4539 220.353 62.8168 221.922 62.8168C237.33 62.8168 255.425 78.6644 290.138 78.6644C308.271 78.6644 336.726 74.1068 336.726 47.5767C336.726 33.2497 331.55 15.9368 304.191 15.9368C286.817 15.9368 274.645 24.4318 260.37 24.4318C242.037 24.4318 234.968 17.8184 222.301 17.8184C213.28 17.8184 192.977 23.0259 192.977 36.669C192.977 41.851 194.605 43.3546 195.108 43.6222C195.27 43.053 196.264 40.1137 197.044 38.814Z" fill="black"/>
<path d="M213.714 60.2641C215.49 60.2641 216.929 58.8302 216.929 57.0615C216.929 55.2927 215.49 53.8588 213.714 53.8588C211.939 53.8588 210.5 55.2927 210.5 57.0615C210.5 58.8302 211.939 60.2641 213.714 60.2641Z" fill="#DC8E6C"/>
</svg>
