<svg width="13" height="13" viewBox="0 0 13 13" fill="none" xmlns="http://www.w3.org/2000/svg">
<path fill-rule="evenodd" clip-rule="evenodd" d="M2.54348 5.08696C2.04043 5.08696 1.54867 4.93779 1.1304 4.6583C0.712126 4.37882 0.386122 3.98159 0.193612 3.51683C0.00110204 3.05207 -0.0492673 2.54066 0.0488734 2.04727C0.147014 1.55388 0.389257 1.10068 0.744969 0.744969C1.10068 0.389257 1.55388 0.147014 2.04727 0.0488734C2.54066 -0.0492673 3.05207 0.00110204 3.51683 0.193612C3.98159 0.386122 4.37882 0.712126 4.6583 1.1304C4.93779 1.54867 5.08696 2.04043 5.08696 2.54348C5.08696 3.21805 4.81898 3.865 4.34199 4.34199C3.865 4.81898 3.21805 5.08696 2.54348 5.08696ZM2.54348 1.69565C2.3758 1.69565 2.21188 1.74538 2.07245 1.83854C1.93303 1.9317 1.82436 2.06411 1.76019 2.21903C1.69602 2.37395 1.67923 2.54442 1.71194 2.70888C1.74466 2.87334 1.82541 3.02441 1.94398 3.14298C2.06255 3.26155 2.21361 3.3423 2.37808 3.37501C2.54254 3.40773 2.71301 3.39094 2.86793 3.32677C3.02285 3.2626 3.15526 3.15393 3.24842 3.01451C3.34158 2.87508 3.39131 2.71116 3.39131 2.54348C3.38838 2.31953 3.29811 2.10558 3.13975 1.94721C2.98138 1.78885 2.76743 1.69858 2.54348 1.69565ZM0.904474 12.9435C0.79308 12.944 0.682703 12.9223 0.57982 12.8796C0.476936 12.8369 0.383619 12.774 0.305343 12.6948C0.146573 12.5358 0.0573935 12.3203 0.0573935 12.0957C0.0573935 11.871 0.146573 11.6555 0.305343 11.4965L11.4966 0.305219C11.5743 0.221921 11.6679 0.15511 11.7719 0.108771C11.8759 0.0624326 11.9881 0.0375155 12.102 0.035507C12.2158 0.0334985 12.3289 0.0544396 12.4345 0.0970808C12.54 0.139722 12.6359 0.20319 12.7164 0.283698C12.7969 0.364206 12.8604 0.460105 12.903 0.565674C12.9457 0.671243 12.9666 0.78432 12.9646 0.898158C12.9626 1.012 12.9377 1.12426 12.8914 1.22826C12.845 1.33226 12.7782 1.42586 12.6949 1.50348L1.5036 12.6948C1.42533 12.774 1.33201 12.8369 1.22913 12.8796C1.12624 12.9223 1.01587 12.944 0.904474 12.9435ZM9.04354 12.5713C9.46182 12.8508 9.95357 13 10.4566 13C11.1312 13 11.7781 12.732 12.2551 12.255C12.7321 11.778 13.0001 11.1311 13.0001 10.4565C13.0001 9.95344 12.8509 9.46169 12.5715 9.04341C12.292 8.62514 11.8947 8.29914 11.43 8.10663C10.9652 7.91412 10.4538 7.86375 9.96042 7.96189C9.46703 8.06003 9.01383 8.30227 8.65812 8.65798C8.3024 9.0137 8.06016 9.4669 7.96202 9.96029C7.86388 10.4537 7.91425 10.9651 8.10676 11.4298C8.29927 11.8946 8.62527 12.2918 9.04354 12.5713ZM9.9856 9.75155C10.125 9.65839 10.2889 9.60867 10.4566 9.60867C10.6806 9.6116 10.8945 9.70186 11.0529 9.86023C11.2113 10.0186 11.3015 10.2325 11.3045 10.4565C11.3045 10.6242 11.2547 10.7881 11.1616 10.9275C11.0684 11.0669 10.936 11.1756 10.7811 11.2398C10.6262 11.304 10.4557 11.3207 10.2912 11.288C10.1268 11.2553 9.97569 11.1746 9.85712 11.056C9.73855 10.9374 9.6578 10.7864 9.62509 10.6219C9.59238 10.4574 9.60917 10.287 9.67334 10.132C9.73751 9.97713 9.84618 9.84471 9.9856 9.75155Z" fill="#CECECE"/>
</svg>
